<svg width="121" height="120" fill="none" xmlns="http://www.w3.org/2000/svg"><g clip-path="url(#clip0)" fill="#003057"><path d="M3.53 63.278a2.275 2.275 0 00-1.522 2.397c.167 1.553 1.715 2.338 4.577 2.037 2.861-.3 4.225-1.26 4.032-3.014-.108-1.053-.543-1.67-2.058-2.188l.343-2.222a4.478 4.478 0 012.571 1.446 4.463 4.463 0 011.11 2.73c.327 3.106-1.765 5.136-5.756 5.553-3.99.418-6.459-1.102-6.785-4.209-.251-2.321.652-3.783 2.76-4.585l.729 2.055zM12.425 54.459l-.77.075c.54.835.79 1.824.711 2.814a2.244 2.244 0 01-1.58 2.11c-.301.093-.618.123-.93.087-2-.159-2.92-1.863-3.062-5.312l-.745-.058c-.678-.059-1.088.46-1.146 1.203a2.243 2.243 0 00.954 2.012l-1.18 1.27a3.934 3.934 0 01-1.33-3.408c.242-2.363 1.188-3.34 3.832-3.107l4.183.335c.43.047.866.021 1.288-.076l-.225 2.055zm-4.234-.117c.159 1.428.326 2.99 1.565 3.09a.964.964 0 001.12-.935 3.68 3.68 0 00-.777-2.005l-1.908-.15zM12.918 51.068L.887 48.638l.418-2.063 12.032 2.43-.419 2.063zM3.698 44.379l-1.9-.543.587-2.021 1.89.543-.577 2.02zm10.643.835l-.578 2.021-8.5-2.405.594-2.021 8.484 2.405zM9.136 38.7l6.644 2.614-.778 1.962-6.635-2.622-.46 1.102-1.582-.584.444-1.086-1.013-.392c-1.765-.702-2.058-1.67-1.422-3.249l.51-1.37 1.59.627-.218.534c-.326.835-.184 1.211.452 1.453l.862.385.653-1.67 1.581.617-.628 1.679zM10.417 31.777c1.17-2.088 3.43-2.506 5.856-1.111 2.427 1.395 3.322 3.49 2.134 5.579-1.188 2.088-3.43 2.505-5.857 1.11-2.426-1.394-3.305-3.49-2.133-5.578zm1.48.835c-.568 1.019-.041 1.954 1.674 2.914 1.715.96 2.794.92 3.347-.1.552-1.019.041-1.954-1.674-2.914-1.715-.96-2.777-.936-3.346.058v.042zM20.724 32.178l-7.061-5.303 1.163-1.546 1.213.902a2.603 2.603 0 01.15-2.99l1.783 1.337a2.186 2.186 0 00-.285 2.722l4.292 3.224-1.255 1.654zM23.77 28.094l-6.25-6.247 1.372-1.361.678.668a4.897 4.897 0 011.13-2.714c1.254-1.245 2.668-1.027 3.948.25l4.276 4.276-1.498 1.487-4.058-4.06c-.836-.834-1.372-.834-1.874-.341a2.69 2.69 0 00-.736 2.054l4.501 4.501-1.49 1.487zM23.812 13.78l-1.222-1.562 1.674-1.286 1.221 1.595-1.673 1.253zm8.057 7.006l-1.673 1.278-5.389-7.032 1.674-1.277 5.388 7.031zM37.098 17.438l-.51-.593a4.536 4.536 0 01-1.9 2.204 2.263 2.263 0 01-3.254-.835c-1.02-1.72-.15-3.457 2.602-5.553l-.385-.643a1.112 1.112 0 00-1.673-.25 2.274 2.274 0 00-1.113 1.92l-1.673-.2a3.954 3.954 0 012.016-3.066c2.075-1.16 3.397-.935 4.744 1.345l2.117 3.583c.221.38.504.722.836 1.01l-1.807 1.078zm-2.343-3.525c-1.079.944-2.267 1.98-1.631 3.049a.96.96 0 001.405.375 3.64 3.64 0 001.189-1.787l-.963-1.637zM45.758 4.326a2.267 2.267 0 00-2.56-.894c-.98.293-1.565.894-1.29 1.804.612 2.013 6.535-.225 7.682 3.575.727 2.405-.419 4.059-3.03 4.844a4.879 4.879 0 01-5.228-1.454l1.606-1.344a2.802 2.802 0 003.079 1.035c1.121-.334 1.857-1.018 1.514-2.154-.694-2.305-6.618 0-7.705-3.641-.594-2.097.803-3.809 2.844-4.427a4.484 4.484 0 014.953 1.403l-1.865 1.253zM50.71 3.44L50.293.552l2.084-.309.427 2.89 1.673-.25.242 1.67-1.715.258.728 4.936c.067.468.318.568.837.493a5.02 5.02 0 00.929-.31l.25 1.671c-.532.158-1.075.283-1.623.376-1.547.225-2.267-.46-2.451-1.67l-.761-5.212-1.214.176-.25-1.67 1.263-.16zM61.387 11.441l-.15-.76a4.615 4.615 0 01-2.737 1.01 2.262 2.262 0 01-2.28-1.404 2.25 2.25 0 01-.163-.934c0-2.004 1.59-3.081 5.02-3.507v-.752c0-.676-.56-1.044-1.313-1.027a2.263 2.263 0 00-1.916 1.12L56.45 4.175a3.947 3.947 0 013.272-1.67c2.384 0 3.422.835 3.464 3.507l.067 4.176c-.006.43.06.86.192 1.269l-2.058-.017zm-.31-4.225c-1.405.292-2.945.61-2.928 1.845a.95.95 0 001.037 1.019 3.667 3.667 0 001.925-.96l-.034-1.904zM66.097 2.898L66.482 0l2.125.259-.368 2.898 1.699.184-.21 1.67-1.723-.167-.61 4.952c-.06.468.158.635.685.702a5.46 5.46 0 00.98-.05l-.21 1.711a12.404 12.404 0 01-1.673-.066c-1.557-.192-2.067-1.044-1.908-2.289l.644-5.22-1.213-.15.21-1.67 1.187.134zM72.113 8.669c-.435 1.778.167 2.672 1.121 2.923a2.338 2.338 0 002.175-.518l1.239 1.31a4.018 4.018 0 01-4.041.836c-2.218-.585-3.163-2.68-2.452-5.387.711-2.705 2.569-4.067 4.886-3.457 2.318.61 2.996 2.79 2.452 4.844l-.218.835-5.162-1.386zm3.648-.518c.276-1.194-.167-2.046-1.155-2.305-.987-.259-1.815.267-2.133 1.436l3.288.869zM92.369 8.234l2.041 1.161-3.798 6.681c-1.774 3.107-4.275 3.04-6.442 1.804-2.168-1.236-3.523-3.34-1.75-6.455l3.8-6.682 2.04 1.153-3.848 6.765c-.979 1.72-.644 2.714.728 3.49 1.372.777 2.401.56 3.347-1.16l3.882-6.757zM89.524 21.003l5.857-6.63 1.456 1.277-.628.71a4.909 4.909 0 012.778.952c1.33 1.161 1.205 2.59 0 3.942l-3.983 4.535-1.59-1.387 3.791-4.309c.786-.893.753-1.42.21-1.887a2.68 2.68 0 00-2.093-.601L91.14 22.39l-1.615-1.387zM97.347 28.587l-1.389-1.579 6.627-5.846 1.397 1.579-6.635 5.846zm6.459-8.494l1.481-1.302 1.397 1.578-1.48 1.345-1.398-1.62zM105.187 24.052l1.205 1.729-4.058 4.618 5.756-2.197 1.213 1.72-8.693 2.99-1.272-1.812 5.849-7.048zM106.576 34.9c-1.624.835-1.908 1.888-1.465 2.773a2.354 2.354 0 001.816 1.294l-.167 1.787a3.995 3.995 0 01-3.263-2.505c-1.021-2.054-.067-4.134 2.451-5.378 2.519-1.245 4.752-.744 5.857 1.394 1.104 2.138-.134 4.084-2.033 5.011l-.778.384-2.418-4.76zm2.794 2.405c1.079-.576 1.431-1.47.979-2.38-.452-.91-1.38-1.177-2.51-.66l1.531 3.04zM105.555 42.408l8.367-2.831.619 1.829-1.431.484a2.615 2.615 0 012.385 1.813l-2.109.71a2.234 2.234 0 00-.1-.36 2.51 2.51 0 00-1.983-1.403l-5.087 1.67-.661-1.912zM114.457 50.417a2.5 2.5 0 00.594-1.804c-.167-.835-.569-1.094-1.087-.994-1.481.3 0 4.502-3.146 5.136-1.808.36-2.879-.835-3.247-2.664a3.888 3.888 0 011.096-3.624l1.314 1.169a2.609 2.609 0 00-.837 2.263c.151.735.653 1.153 1.239 1.036 1.48-.293.075-4.518 3.095-5.12 1.615-.325 2.795.836 3.096 2.364a4.05 4.05 0 01-.711 3.34l-1.406-1.102zM108.6 56.438l-.184-2.096 8.811-.768.184 2.096-8.811.768zm10.258-2.99l1.958-.167.184 2.096-1.958.167-.184-2.096zM117.561 58.618h2.92v2.104l-2.92-.041v1.728h-1.673v-1.737l-5.02-.083c-.477 0-.619.234-.628.76.02.327.073.652.159.969h-1.74a13.92 13.92 0 01-.109-1.67c0-1.562.837-2.164 2.075-2.139l5.28.084v-1.22h1.673l-.017 1.245zM107.32 62.443c-.09.271-.151.55-.184.835a1.33 1.33 0 00.502 1.47c.282.236.619.4.979.476.364.005.727-.037 1.079-.126l7.807-1.32-.285 2.105-5.597.71 5.187 2.23-.284 2.088-8.367-3.95c-2.385-1.27-2.962-2.105-2.728-3.817.04-.34.11-.675.21-1.002l1.681.3zM57.463 55.879c-2.828 0-5.593.837-7.944 2.405a14.278 14.278 0 00-5.267 6.405 14.249 14.249 0 003.1 15.554 14.323 14.323 0 0015.583 3.094 14.293 14.293 0 006.417-5.257 14.254 14.254 0 00-1.778-18.021 14.312 14.312 0 00-10.111-4.18zm.058 25.772c-2.294 0-4.536-.68-6.443-1.951a11.58 11.58 0 01-4.271-5.197 11.556 11.556 0 012.517-12.615 11.616 11.616 0 0112.64-2.504 11.591 11.591 0 015.203 4.267 11.56 11.56 0 011.068 10.861 11.565 11.565 0 01-6.276 6.26c-1.407.581-2.915.88-4.438.879z"/><path d="M25.033 68.23s.636.835 2.627.385a2.23 2.23 0 011.607.133c.167.1.209.184.192.259-.051.23-.17.44-.343.601a4.81 4.81 0 001.833.142c.836-.15 1.874-.158 2.016-.183.142-.025.393 0 .284.3a4.555 4.555 0 01-.334.61l2.091-.368a6.435 6.435 0 012.268 0c.837.167.837 1.345 2 1.67 1.163.326 1.146-2.505 1.163-3.281a1.85 1.85 0 01.895-1.67c.945-.744.72-1.88.619-2.673-.1-.794 1.464-1.587 1.89-2.505a2.951 2.951 0 00-.108-2.314c-.184-.384.117-.685.335-.91.51-.51 1.313-1.913.962-2.414-.352-.5-2.268.05-4.276 1.871a21.665 21.665 0 00-4.016 4.944c-.067.117-.15-.134 0-.46a16.432 16.432 0 013.49-5.32c2.25-2.204 4.4-3.006 6.057-2.621 1.657.384 1.305 1.753 1.02 2.505-.284.752-1.154 1.336-1.288 2.205-.08.79-.03 1.589.15 2.363a2.619 2.619 0 01-.987 2.255c-.334.36-1.054 1.152-1.012 1.553.154.653.072 1.34-.234 1.938-.494 1.378-1.615 1.67-1.674 2.096-.058.426 0 2.188-1.146 3.274a2.032 2.032 0 01-2.336.495 2.032 2.032 0 01-.684-.495c-.578-.677-.837-1.545-2.017-1.503a16.072 16.072 0 00-3.104.275c-.9.223-1.83.288-2.752.192a1.375 1.375 0 01-.611-.25 5.3 5.3 0 001.146-.318c.46-.183.552-.35.552-.35-.804.104-1.616.132-2.426.083-1.314-.084-2.577-.551-3.347-.56.267-.248.602-.41.962-.467.67-.134.72-.368.72-.368a3.812 3.812 0 01-2.71-.785c-.193-1.803.836-5.086.836-5.086a2.222 2.222 0 00-.427.276 2.513 2.513 0 01-.837.367c.243-.596.42-1.218.528-1.853a34.73 34.73 0 011.99-5.479 1.29 1.29 0 00-.627.25 1.61 1.61 0 01-.728.268c.078-.344.196-.678.352-.994a10.21 10.21 0 011.414-2.23c.383-.46.727-.953 1.029-1.47 0 0-.167-.117-.628 0a4.54 4.54 0 00-.836.31c.366-.599.793-1.158 1.271-1.67a19.23 19.23 0 012.385-2.23 1.617 1.617 0 01-.72.125 2.772 2.772 0 00-.635.058c.456-.429.955-.81 1.489-1.136a24.617 24.617 0 012.51-1.461 2.772 2.772 0 00-.653 0c-.376.05-.761.142-.761.142a11.636 11.636 0 013.213-1.503c2.895-.953 4-.694 4-.694a6.948 6.948 0 00-1.858.543c-.441.177-.864.395-1.264.652.155.104.304.218.444.342 0 .058.1.167-.076.217a9.852 9.852 0 00-1.89.585 4.97 4.97 0 00-1.314.71l.402.158c.159.084.142.192 0 .343-.143.15-.502.426-1.582 1.286a7.798 7.798 0 00-1.456 1.453h.645c.108 0 .2.058.075.225a23.91 23.91 0 00-1.581 1.83 15.642 15.642 0 00-1.03 1.553s1.055-.268.837.417a20.151 20.151 0 01-1.523 3.34 37.536 37.536 0 00-1.564 3.508s.987-.083 1.07-.066c.084.016.227.142.168.283a15.014 15.014 0 00-1.581 3.7 15.69 15.69 0 00-.56 2.597zM84.88 73.492s-.46-.084-.727-.11c-.268-.024-.285.485-.26.753a24.18 24.18 0 01-.108 3.975c-.05.159-.778-.284-.938-.343-.158-.058-.284.084-.31.26a22.874 22.874 0 01-1.564 5.636s-.217-.425-.284-.593a.193.193 0 00-.326-.058 7.56 7.56 0 00-1.38 2.864 6.779 6.779 0 01-1.03 2.038c-.126-.075-.15-.743-.226-.918-.075-.176-.301-.1-.368.041-.067.142-.418.927-1.247 2.623-.828 1.695-1.43 3.148-2.618 3.273-.837.084-1.222-2.321-1.222-2.321a1.462 1.462 0 00-.46.593 2.635 2.635 0 00-.184.835 8.853 8.853 0 01-.469-4.602c0-.217-.1-.326-.243-.242a6.15 6.15 0 00-.485.368 5.482 5.482 0 00-.544-1.395c-.292-.501-1.054-.26-1.598-.217-.543.041-.694-.435-.326-1.487.368-1.052 1.765-1.62 2.36-1.962.594-.343.1-.836.3-1.504.344-1.102 1.984-1.595 2.201-1.979.218-.384-.184-.944.059-1.795.242-.852 1.899-1.896 1.899-1.896a6.236 6.236 0 01.678-4.076c.66-.91 1.916-.108 2.284 2.38.519 3.516-.954 5.846-1.674 7.366-.72 1.52-.987 1.537-.903 1.612.084.075.443 0 1.046-.835.602-.835 3.187-4.326 2.66-8.218-.527-3.891-2.619-4.86-4.233-4.017-1.615.844-1.85 2.397-1.481 5.237a6.234 6.234 0 00-1.28 1.36c-.335.627-.168 1.813-.394 1.972a5.51 5.51 0 00-1.547 1.361c-.57.785-.469 1.796-.837 1.996a3.942 3.942 0 00-2.217 2.505c-.544 1.67 0 3.09.836 2.907.837-.184 2.017-.268 1.958.968a18.03 18.03 0 000 3.633c.16-.485.353-.96.578-1.42 0 0 .836 4.276 2.51 5.846a8.878 8.878 0 00-.168-1.277 1.468 1.468 0 01.067-1.003.943.943 0 001.012.66c1.557-.075 3.264-3.633 3.264-3.633-.075.403-.016.82.167 1.186a14.89 14.89 0 002.794-5.228 6.557 6.557 0 01.837-1.812s.184.125.167.585c-.006.315.042.628.143.927a29.434 29.434 0 002.275-7.19s.218.108.335.567c.102.305.261.589.469.835.63-1.827.914-3.756.836-5.687.193.074.372.182.527.317.254.217.474.47.653.752a12.895 12.895 0 00-.535-4.126c-.31-1.227-.686-2.614-.686-2.614.386.026.751.189 1.029.46-1.046-4.176-2.134-5.72-2.134-5.72l.444.05c.218.05.428.13.627.233a13.402 13.402 0 00-2.619-3.917c.3-.074.613-.074.912 0-1.782-3.165-5.572-4.259-5.572-4.259a12.612 12.612 0 013.288 2.781c.1.142-.184.326-.427.326a.226.226 0 00-.2.367 16.187 16.187 0 012.15 2.898c.1.226-.787 0-.603.468a25.593 25.593 0 012.008 4.343s-1.238-.284-1.096.117a36.948 36.948 0 012.15 6.18zM61.32 30.5c-.976-.031-1.953.02-2.92.15-1.673.225-2.334.442-2.995.517a7.624 7.624 0 01-.837.059c.24.251.559.413.904.459a3.61 3.61 0 011.096.15c-.76.151-1.507.36-2.234.627-1.866.634-1.941.751-3.85 1.353.303.157.632.256.971.292.247.001.488.064.703.184-.96.212-1.906.492-2.828.835-1.497.593-1.824.952-2.593.977.285.152.598.245.92.275.25.021.499.057.745.109 0 0-.603.284-1.975 1.035-.818.52-1.705.922-2.636 1.195a2.85 2.85 0 001.063.376l.51.041c-.715.448-1.455.855-2.217 1.22-.74.283-1.428.69-2.033 1.202.337.027.67.086.996.176l.368.133a17.28 17.28 0 00-2.092 1.245 6.178 6.178 0 00-1.631 1.444 23.747 23.747 0 015.02-2.288c.209-.05.334-.259.109-.493-.226-.234-.628-.51-.628-.51s.15-.1 1.673-.834c1.523-.735 2.276-1.053 2.51-1.144.235-.092 0-.31-.108-.384a13.004 13.004 0 00-.695-.368s.31-.167 1.004-.484c1.213-.543 3.02-1.161 3.18-1.228.159-.067.15-.217 0-.326l-.586-.459c.45-.232.928-.406 1.422-.518a18.566 18.566 0 002.176-.693c.31-.125.443-.3.36-.543a2.35 2.35 0 00-.285-.51 11.72 11.72 0 011.188-.442c.912-.284 1.573-.376 2.393-.584.82-.21.962-.31.979-.476-.01-.2-.074-.393-.184-.56a4.947 4.947 0 011.08-.142 20.6 20.6 0 012.51-.092c.441.052.888.052 1.33 0 .284-.092.393-.701.393-.701a5.439 5.439 0 011.916.183c1.138.293 1.673.46 1.907.543.234.084.444 0 .51-.25.068-.25.151-.51.151-.51.688.05 1.361.228 1.983.526.751.361 1.463.798 2.125 1.303.184.126.327-.042.486-.184.102-.104.197-.216.284-.334a.99.99 0 01.444.05 6.397 6.397 0 011.48.76c.544.376.653.652 1.096.836.193.058.369-.284.503-.593.057-.164.155-.31.284-.426.243.068.474.172.686.309.507.267.972.608 1.38 1.01a.084.084 0 00.098.021.083.083 0 00.028-.02 1.277 1.277 0 00-.268-.836 11.797 11.797 0 00-2.309-2.012 9.697 9.697 0 01-1.33-1.086.839.839 0 01-.117-.167c-.023.288.035.577.167.835.14.28.208.59.2.902a10.473 10.473 0 00-2.04-1.17c-.646-.275-1.27-.6-1.867-.968a4.02 4.02 0 01-.652-.41c.02.318.106.628.25.911.12.157.197.34.227.534a16.99 16.99 0 00-3.288-1.144 30.111 30.111 0 01-2.97-.835c.105.327.263.635.468.91.135.134.258.28.368.435a31.591 31.591 0 00-3.146-.368c-1.564-.083-2.2 0-2.46 0h-.242s.067.31.627.577c.263.101.513.233.745.392zM86.487 36.295a3.694 3.694 0 01-.159 3.34 17.389 17.389 0 01-1.824 1.788 6.519 6.519 0 00-1.154 2.23c-.218.71-.57 1.369-1.172 1.369a1.8 1.8 0 01-1.447-1.203c-.326-.726-.41-1.67-1.674-2.371-1.263-.702-3.505-1.428-3.505-2.907 0-1.478 1.447-1.954 2.36-3.14a4.674 4.674 0 013.522-1.996 6.702 6.702 0 015.053 2.89zM91.264 47.703a6.034 6.034 0 00-.334-.719.836.836 0 01.426-.367c.494-.209.837-.167.837-.526a3.735 3.735 0 00-1.154-2.731c.272-.084.564-.084.836 0 .368.075.402-.092.402-.092a6.375 6.375 0 00-2.368-2.881c.26-.15.636 0 .945.075a.98.98 0 00.561 0 3.94 3.94 0 00-2.142-2.38 4.54 4.54 0 00-1.89-.56c-.084 0 0 .117 0 .142.343.192.665.419.962.677.527.468.552.651.552.651s.075.26-.394.618c-.468.36-.912.643-.97.735-.059.092 0 .176.075.242.492.284.96.608 1.397.97.695.575.912.985.745 1.06-.167.075-.67.192-.56.442.108.25.527.493.836.769.31.275.686.56.327 1.536-.235.602-.57.752-.837.752-.268 0-.477 0-.435.084.042.083.535 1.027.318 1.544-.218.518-.435.76-1.088.677-.276 0-.368 0-.31.092a2.227 2.227 0 01.427 1.67.617.617 0 01-.979.443 82.574 82.574 0 00-.71-1.67.36.36 0 00-.478-.168.342.342 0 00-.167.468l.192.4c.168.335.318.677.46 1.011.01.398-.024.796-.1 1.186-.134.593-.527.785-.837.117a7.61 7.61 0 01-.543-1.67c0-.117-.444.084-.469.309-.025.225-.226 1.311-.644 1.47-.193.075-.394-.36-.394-.894s.277-1.545-.393-2.046a.68.68 0 00-.51-.134.403.403 0 00-.293.15c0 .801-.15 1.594-.443 2.34 0 0 .669-.627.669-.268a4.277 4.277 0 00.485 2.03 1.405 1.405 0 001.096.642c.126 0-.067-.4.444-.927.134-.15.242-.258.284-.108a1.202 1.202 0 001.163.96 1.415 1.415 0 001.289-1.069c1.59 4.819 1.447 9.504-.276 12.644 2.125-3.132 2.426-8.218.686-13.437.451-.2 1.313 0 1.673-.794a.254.254 0 000-.083c2.15 4.46 2.652 9.011 1.43 12.285 1.674-3.39 1.214-8.452-1.254-13.362a1.42 1.42 0 00-.176-.552 2.58 2.58 0 011.247-.425.57.57 0 00.401-.184c2.862 4.175 4.016 8.777 3.213 12.276 1.28-3.6.05-8.76-3.23-13.42z"/><path d="M70.364 35.86c.243.134.36.318.168.677a1.069 1.069 0 01-.962.601c-.92.076-1.75-.568-3.515-.492a8.045 8.045 0 00-3.162.701c-.42.177-.824.392-1.205.643 0 0 0-.167.117-.309a9.69 9.69 0 014.786-2.113c2.1-.359 3.305.017 3.773.293z"/><path d="M68.8 37.439a.1.1 0 01.159.05c.085.323.085.663 0 .986a2.338 2.338 0 01-.895 1.31 1.331 1.331 0 01-1.967-.484c-.368-.768-.117-2.104.753-2.33.343-.092.444.184.477.393.05.384-.159.601 0 .902.16.3.586.384.97 0 .386-.384.386-.476.436-.618.05-.142.05-.184.067-.209zM81.785 47.343c-.142-.167-.318-.167-.335.109a2.319 2.319 0 01-.468 1.286c-.327.476-.435.125-.695.318-.686.526-.393 1.62-.393 2.196 0 .576-.142 1.11-.343 1.027-.418-.175-.661-.919-.711-1.152-.109-.527-.444-.46-.477-.326a15.842 15.842 0 01-1.096 2.79c-.2.392-.46 0-.594-.385.306-.853.658-1.69 1.054-2.505l.21-.435a.384.384 0 00-.48-.528.401.401 0 00-.224.194 27.535 27.535 0 00-1.547 3.95 7.513 7.513 0 01-1.03 1.529c-.259.292-.702-1.32-1.38-.468l-1.138 1.503c0 .059-.067.076-.084.076a24.202 24.202 0 012.31-4.544c.083-.125.159-.258.25-.375a.375.375 0 00-.108-.493.36.36 0 00-.494.108 24.08 24.08 0 00-2.15 4.134c-.184-.71-.837 0-1.104.36-.268.359-.695.91-.795.693a1.797 1.797 0 01-.076-.351c-.05-.284-.3-.401-.619-.426a24.488 24.488 0 011.774-2.622l.251-.326a.317.317 0 00-.059-.443.327.327 0 00-.451.05 22.145 22.145 0 00-2.176 3.433 5.994 5.994 0 00-.703.184l-1.204.409a.909.909 0 00-.318-.835c-.276-.25-1.44 0-1.866-.075-.427-.076-.502-.176-.435-.418.184-.651-.385-.952-1.046-1.094a4.339 4.339 0 01-.962-.31c.234-.634-.753-1.076-1.322-1.344a19.693 19.693 0 01-1.247-.66l-.05-.509c-.059-.676-.837-.902-1.347-1.286a2.556 2.556 0 01-.678-1.144c.035.282.088.56.16.835.158.702.836 1.019.978 1.512a.918.918 0 01-.134.835c.427.342.996.635 1.724 1.094.728.46.184.835.184.835a6.489 6.489 0 002.033.977c.77.242.134.877.134.877.786.4 1.635.662 2.51.777.61 0 .159.893.159.893.569.192 1.004.1 2.393-.242l.418-.075c-1.581 3.666-1.89 7.24-.803 9.854-.837-2.705-.326-6.246 1.347-9.746a.444.444 0 01.243.66c-.134.284 0 .652.209.551 1.188-.5 1.866-1.486 2.133-1.486.076 0 .126.075.16.167-1.28 3.983-1.222 7.825.167 10.522-1.004-2.505-.996-5.787 0-9.186.744-.4 1.004-.977 1.455-1.37.452-.392.636-.192.712.1.075.293-.235 1.045.159.886a3.8 3.8 0 001.146-.76c-.703 4.292-.1 8.226 1.673 10.857-1.673-3.09-1.991-7.517-.761-12.277.04-.116.09-.227.15-.334.126-.242.293.059.31.434.017.376.067.618.31.485 1.196-.61 2.008-2.506 2.075-2.948 0-.167.142-.059.3.083.561.51.41.944.536.936a1.489 1.489 0 001.03-.836 5.621 5.621 0 00.259-2.221c0-.392.66.292.66.292a6.312 6.312 0 00.511-2.397c.126-1.194-.025-1.695-.184-1.879z"/><path d="M71.31 56.914c0-.092-.084-.167-.16-.167-.075 0-.083.05-.116.067l.234.25c.017-.05.025-.1.042-.15zM64.08 55.027c-.066.242 0 .359.436.417h1.23c-.54-.311-1.1-.59-1.673-.835.044.135.047.28.008.418zM67.034 56.204l-.376-.25a.974.974 0 010 .367l.376-.117z"/><path d="M70.657 59.57c.148-.848.352-1.685.611-2.506l-.234-.275c-.536.451-1.094.875-1.674 1.27.46.48.892.984 1.297 1.51zM71.996 57.858a3.2 3.2 0 01-.51.359c-.184.635-.302 1.261-.427 1.88a16.682 16.682 0 013.296 9.645 2.247 2.247 0 012.1-.342 18.415 18.415 0 00-.209-2.155 12.736 12.736 0 01-1.472-5.011 18.984 18.984 0 00-2.778-4.376zM60.533 53.532c0-.159 0-.36-.376-.576-.728-.46-1.297-.752-1.724-1.094a1.05 1.05 0 00.168-.669c-.36 0-.712-.058-1.071-.058a18.9 18.9 0 00-10.877 3.466 1.506 1.506 0 01.931 1.462c-.01.206-.062.407-.153.592a16.753 16.753 0 0110.132-3.407c.997.008 1.99.102 2.97.284zM40.922 72.757a2.034 2.034 0 01-2.075.409 18.865 18.865 0 003.537 8.309 18.91 18.91 0 006.998 5.72 18.947 18.947 0 0017.552-.667 3.092 3.092 0 01-.126-2.397 16.845 16.845 0 01-22.593-3.758 16.779 16.779 0 01-3.293-7.616zM37.274 70.151a6.435 6.435 0 00-2.268 0l-2.091.368c.127-.195.239-.399.334-.61.11-.267-.142-.326-.284-.3-.142.024-1.146 0-2.017.183a4.813 4.813 0 01-1.832-.142c.172-.162.292-.371.343-.601 0-.076 0-.159-.192-.26a2.23 2.23 0 00-1.607-.133c-1.99.41-2.627-.384-2.627-.384a15.7 15.7 0 01.552-2.597c.36-1.299.891-2.543 1.582-3.7.058-.142-.084-.259-.168-.284-.083-.025-1.062.025-1.062.025a37.548 37.548 0 011.598-3.474 20.155 20.155 0 001.523-3.34c.184-.685-.837-.418-.837-.418.312-.538.655-1.056 1.03-1.553.482-.632.995-1.24 1.538-1.82.126-.168 0-.21-.075-.226h-.644a7.8 7.8 0 011.456-1.453c1.08-.836 1.506-1.212 1.581-1.287.075-.075.168-.259 0-.342l-.393-.2a4.97 4.97 0 011.305-.744 9.845 9.845 0 011.891-.584c.176-.05.109-.159.075-.218a4.31 4.31 0 00-.443-.342c.403-.245.83-.452 1.272-.618a6.95 6.95 0 011.874-.534s-1.105-.26-4 .693a11.63 11.63 0 00-3.22 1.511s.384-.092.76-.142c.217-.025.436-.025.653 0-.865.438-1.703.926-2.51 1.462a9.091 9.091 0 00-1.49 1.136c.21-.044.423-.064.637-.059.246.014.492-.029.72-.125a19.238 19.238 0 00-2.385 2.23 10.452 10.452 0 00-1.272 1.67c.268-.13.548-.234.837-.309.46-.117.627 0 .627 0-.303.511-.647.997-1.029 1.453a10.212 10.212 0 00-1.414 2.23c-.156.316-.274.65-.351.994.26-.029.51-.12.728-.268.183-.137.4-.224.627-.25a34.745 34.745 0 00-2.008 5.512 8.818 8.818 0 01-.527 1.854c.3-.07.583-.195.837-.368.13-.108.274-.2.426-.275 0 0-1.07 3.299-.853 5.086.77.599 1.74.88 2.71.785 0 0-.05.234-.719.367-.36.057-.695.22-.962.468.77 0 2.033.476 3.347.56.81.048 1.622.02 2.426-.084 0 0-.092.167-.552.35a5.298 5.298 0 01-1.146.318c.18.132.39.218.61.25a7.997 7.997 0 002.753-.191 16.07 16.07 0 013.104-.276c1.188 0 1.44.835 2.017 1.503.213.234.48.412.778.518a16.31 16.31 0 01-.21-1.67c-.585-.51-.736-1.245-1.363-1.345zM76.656 67.938a8.883 8.883 0 01-.46-.986l.05.293c.125.237.262.469.41.693zM68.808 57.624a.476.476 0 010 .117c-.134.284 0 .651.21.551.208-.1.233-.134.35-.2-.2-.176-.384-.318-.56-.468z"/><path d="M71.477 67.437a13.34 13.34 0 01-.418-7.341 26.913 26.913 0 00-.402-.526 12.64 12.64 0 00.82 7.867zM66.382 55.52a1.072 1.072 0 00-.636-.117c.31.175.619.359.912.542a.835.835 0 00-.276-.425zM54.535 69.483a1.6 1.6 0 00-.57.108 1.686 1.686 0 00-.694 2.28 1.687 1.687 0 002.284.694 1.67 1.67 0 00.695-1.37 1.668 1.668 0 00-1.052-1.593 1.675 1.675 0 00-.663-.119z"/><path d="M64.583 74.778l-.301-.268-.1-.384-.16-.15v-.084l-.083-.05v-.217l-1.314-1.294-.293-.276-1.673-1.562-.837-.768-.72-.651-.92-.835-.234-.226-.318-.267-.368-.318-.176-.15v-4.76h-5.304v.317l.084.075v.076l.041.142.076.125h-.05l.066.142-.041.083-.05.2v.134h-.043v.075l.067.192-.292.66-.067.176v.317l.225.209.1.067v.117l.076.058.1.15.043.076.108.1v.843l.075.175.068.15-.05.176v.05l.075.075.083.092.117.109h.067l.059.092.109.175.083.05.16.109.066.184h.042l.075.05.151-.076a2.966 2.966 0 013.666 1.426c.219.427.33.901.325 1.38a2.918 2.918 0 01-1.18 2.364V73.642l.059.117v.192l-.05.192v.184h.15l.084.125h.61l.084.05h.385l.184.05.134.142h.117l.092.217.084.067.2.058H58.81l.092.059.117.242-.042.084.168.083v-.075h.184l.192.175.067.059h.075l.184.2.126.075.184.192.243.46v.275l.058.134v.1l.05-.05.1.067v.083l-.091-.083.05.067v.125l1.288-.142 1.74-.159h.235v-.117l.067-.066v.008l-.075-.075h.1l-.05-.05v-.293l-.059-.066v-.159l.109-.109h.075l.05-.142V75.47l.11-.108.05-.1.3-.259h.076v-.225zM5.28 84.891l10.458-6.038 1.673 2.814-6.141 6.222 8.475-2.188 1.674 2.84-10.542 6.054-1.004-1.737 8.224-4.743L8.51 90.52l-.837-1.512 6.894-7.065-8.232 4.752-1.055-1.804zM16.817 101.569c-2.292-2.372-1.9-5.212.946-7.942 2.844-2.731 5.697-3.032 7.981-.668 2.285 2.363 1.9 5.21-.945 7.95-2.845 2.739-5.698 3.023-7.982.66zm7.53-7.258c-1.305-1.36-2.945-.985-5.02.97-2.075 1.953-2.51 3.574-1.146 4.943 1.364 1.37 2.953.986 5.02-.977 2.067-1.963 2.46-3.583 1.146-4.936zM23.536 107.582l6.584-10.105 2.017 1.32-.51 9.469 4.492-6.881 1.824 1.186-6.601 10.105-1.858-1.219.636-9.863-4.702 7.19-1.882-1.202zM47.08 106.162l-.695 1.804-2.953-1.136-3.648 9.462-2.159-.835 3.657-9.462-2.954-1.136.694-1.804 8.058 3.107zM46.201 118.33l2.1-11.876 7.882 1.386-.335 1.913-5.606-.986-.502 2.823 4.075.718-.343 1.913-4.066-.718-.594 3.34 5.79 1.019-.344 1.912-8.057-1.444zM58.132 120l-.401-12.051 4.81-.15c2.745-.092 3.9 1.461 3.983 3.449a2.984 2.984 0 01-2.1 3.165l2.828 5.286-2.56.084-2.427-4.835-1.99.066.158 4.911-2.3.075zm2.092-6.848l1.673-.058c1.8-.051 2.335-.644 2.301-1.779-.033-1.136-.745-1.671-2.016-1.671l-2.1.067.142 3.441zM71.302 119.04l-2.887-11.692 7.773-1.913.46 1.888-5.53 1.336.694 2.789 4.008-.985.468 1.887-4.016.986.837 3.273 5.672-1.361.469 1.887-7.948 1.905zM82.73 107.732l-.125-5.203 2.184-1.01v7.975l2.024 4.359-2.091.969-2.033-4.359-6.075-5.178 2.192-1.011 3.924 3.458zM88.788 98.896l3.397-2.923c1.824-1.57 3.522-1.987 5.02-.442a2.688 2.688 0 01.401 3.273c1.607-.543 2.511-.35 3.69 1.044 1.18 1.395 1.08 3.266-1.255 5.27l-3.346 2.906-7.907-9.128zm4.92 2.155l1.748-1.512a1.48 1.48 0 00.287-2.189 1.48 1.48 0 00-2.211-.032l-1.749 1.503 1.925 2.23zm3.522 4.067l1.749-1.503c1.012-.835 1.062-1.671.31-2.589-.754-.919-1.599-.944-2.611-.067l-1.749 1.503 2.301 2.656zM98.067 89.877l1.748-2.288 11.714 4.593-1.389 1.82-2.51-1.043-2.309 3.031 1.673 2.146-1.389 1.82-7.538-10.08zm6.057 4.56l1.674-2.238-5.021-2.097 3.347 4.335zM107.68 83.864l-3.305-4.034 1.105-2.163 4.928 6.28 4.283 2.205-1.054 2.055-4.284-2.188-7.981-.368 1.104-2.138 5.204.35z"/></g><defs><clipPath id="clip0"><path fill="#fff" d="M0 0h121v120H0z"/></clipPath></defs></svg>